M48
; DRILL file {KiCad 7.0.10-7.0.10~ubuntu23.04.1} date Sat 20 Apr 2024 04:36:36 PM CDT
; FORMAT={-:-/ absolute / inch / decimal}
; #@! TF.CreationDate,2024-04-20T16:36:36-05:00
; #@! TF.GenerationSoftware,Kicad,Pcbnew,7.0.10-7.0.10~ubuntu23.04.1
; #@! TF.FileFunction,Plated,1,2,PTH
FMAT,2
INCH
; #@! TA.AperFunction,Plated,PTH,ComponentDrill
T1C0.0315
; #@! TA.AperFunction,Plated,PTH,ComponentDrill
T2C0.0320
; #@! TA.AperFunction,Plated,PTH,ComponentDrill
T3C0.0354
; #@! TA.AperFunction,Plated,PTH,ComponentDrill
T4C0.0390
; #@! TA.AperFunction,Plated,PTH,ComponentDrill
T5C0.0394
; #@! TA.AperFunction,Plated,PTH,ComponentDrill
T6C0.0866
%
G90
G05
T1
X5.125Y-3.825
X5.125Y-4.125
X5.175Y-5.025
X5.475Y-5.025
X5.625Y-3.675
X5.925Y-3.675
X6.075Y-4.6266
X6.075Y-4.8234
X6.225Y-3.525
X6.225Y-4.125
X6.2266Y-3.7156
X6.2266Y-3.925
X6.4219Y-3.525
X6.4219Y-4.125
X6.4234Y-3.7156
X6.4234Y-3.925
T2
X6.3063Y-4.5463
X6.3063Y-4.625
X6.3063Y-4.7037
X6.3063Y-4.7825
T3
X5.325Y-3.575
X5.325Y-4.775
X5.325Y-4.875
X5.425Y-3.575
T4
X5.625Y-3.875
X5.625Y-3.975
X5.625Y-4.075
X5.625Y-4.175
X5.625Y-4.275
X5.625Y-4.375
X5.625Y-4.475
X5.625Y-4.575
X5.625Y-4.675
X5.625Y-4.775
X5.625Y-4.875
X5.625Y-4.975
X5.625Y-5.075
X5.625Y-5.175
X5.925Y-3.875
X5.925Y-3.975
X5.925Y-4.075
X5.925Y-4.175
X5.925Y-4.275
X5.925Y-4.375
X5.925Y-4.475
X5.925Y-4.575
X5.925Y-4.675
X5.925Y-4.775
X5.925Y-4.875
X5.925Y-4.975
X5.925Y-5.075
X5.925Y-5.175
T5
X5.325Y-3.875
X5.325Y-3.975
X5.325Y-4.075
X5.325Y-4.175
X5.325Y-4.275
X5.325Y-4.375
X5.325Y-4.475
X5.325Y-4.575
X5.525Y-3.375
X5.625Y-3.375
X5.725Y-3.375
X5.825Y-3.375
X5.925Y-3.375
X6.075Y-3.775
T6
X6.6Y-3.225
X6.6Y-3.225
X7.0Y-4.4
X7.4Y-3.225
X7.4Y-3.225
M30
