%TF.GenerationSoftware,KiCad,Pcbnew,7.0.10-7.0.10~ubuntu23.04.1*%
%TF.CreationDate,2024-04-20T16:35:45-05:00*%
%TF.ProjectId,GPS-MINPOINT,4750532d-4d49-44e5-904f-494e542e6b69,V001*%
%TF.SameCoordinates,Original*%
%TF.FileFunction,Legend,Top*%
%TF.FilePolarity,Positive*%
%FSLAX46Y46*%
G04 Gerber Fmt 4.6, Leading zero omitted, Abs format (unit mm)*
G04 Created by KiCad (PCBNEW 7.0.10-7.0.10~ubuntu23.04.1) date 2024-04-20 16:35:45*
%MOMM*%
%LPD*%
G01*
G04 APERTURE LIST*
%ADD10C,0.150000*%
%ADD11C,0.100000*%
%ADD12C,0.300000*%
%ADD13C,0.152400*%
%ADD14C,0.508000*%
%ADD15C,0.120000*%
G04 APERTURE END LIST*
D10*
X177390588Y-92897438D02*
X177295350Y-92849819D01*
X177295350Y-92849819D02*
X177152493Y-92849819D01*
X177152493Y-92849819D02*
X177009636Y-92897438D01*
X177009636Y-92897438D02*
X176914398Y-92992676D01*
X176914398Y-92992676D02*
X176866779Y-93087914D01*
X176866779Y-93087914D02*
X176819160Y-93278390D01*
X176819160Y-93278390D02*
X176819160Y-93421247D01*
X176819160Y-93421247D02*
X176866779Y-93611723D01*
X176866779Y-93611723D02*
X176914398Y-93706961D01*
X176914398Y-93706961D02*
X177009636Y-93802200D01*
X177009636Y-93802200D02*
X177152493Y-93849819D01*
X177152493Y-93849819D02*
X177247731Y-93849819D01*
X177247731Y-93849819D02*
X177390588Y-93802200D01*
X177390588Y-93802200D02*
X177438207Y-93754580D01*
X177438207Y-93754580D02*
X177438207Y-93421247D01*
X177438207Y-93421247D02*
X177247731Y-93421247D01*
X177866779Y-93849819D02*
X177866779Y-92849819D01*
X177866779Y-92849819D02*
X178247731Y-92849819D01*
X178247731Y-92849819D02*
X178342969Y-92897438D01*
X178342969Y-92897438D02*
X178390588Y-92945057D01*
X178390588Y-92945057D02*
X178438207Y-93040295D01*
X178438207Y-93040295D02*
X178438207Y-93183152D01*
X178438207Y-93183152D02*
X178390588Y-93278390D01*
X178390588Y-93278390D02*
X178342969Y-93326009D01*
X178342969Y-93326009D02*
X178247731Y-93373628D01*
X178247731Y-93373628D02*
X177866779Y-93373628D01*
X178819160Y-93802200D02*
X178962017Y-93849819D01*
X178962017Y-93849819D02*
X179200112Y-93849819D01*
X179200112Y-93849819D02*
X179295350Y-93802200D01*
X179295350Y-93802200D02*
X179342969Y-93754580D01*
X179342969Y-93754580D02*
X179390588Y-93659342D01*
X179390588Y-93659342D02*
X179390588Y-93564104D01*
X179390588Y-93564104D02*
X179342969Y-93468866D01*
X179342969Y-93468866D02*
X179295350Y-93421247D01*
X179295350Y-93421247D02*
X179200112Y-93373628D01*
X179200112Y-93373628D02*
X179009636Y-93326009D01*
X179009636Y-93326009D02*
X178914398Y-93278390D01*
X178914398Y-93278390D02*
X178866779Y-93230771D01*
X178866779Y-93230771D02*
X178819160Y-93135533D01*
X178819160Y-93135533D02*
X178819160Y-93040295D01*
X178819160Y-93040295D02*
X178866779Y-92945057D01*
X178866779Y-92945057D02*
X178914398Y-92897438D01*
X178914398Y-92897438D02*
X179009636Y-92849819D01*
X179009636Y-92849819D02*
X179247731Y-92849819D01*
X179247731Y-92849819D02*
X179390588Y-92897438D01*
X144322969Y-71624819D02*
X143846779Y-71624819D01*
X143846779Y-71624819D02*
X143846779Y-70624819D01*
X145227731Y-71529580D02*
X145180112Y-71577200D01*
X145180112Y-71577200D02*
X145037255Y-71624819D01*
X145037255Y-71624819D02*
X144942017Y-71624819D01*
X144942017Y-71624819D02*
X144799160Y-71577200D01*
X144799160Y-71577200D02*
X144703922Y-71481961D01*
X144703922Y-71481961D02*
X144656303Y-71386723D01*
X144656303Y-71386723D02*
X144608684Y-71196247D01*
X144608684Y-71196247D02*
X144608684Y-71053390D01*
X144608684Y-71053390D02*
X144656303Y-70862914D01*
X144656303Y-70862914D02*
X144703922Y-70767676D01*
X144703922Y-70767676D02*
X144799160Y-70672438D01*
X144799160Y-70672438D02*
X144942017Y-70624819D01*
X144942017Y-70624819D02*
X145037255Y-70624819D01*
X145037255Y-70624819D02*
X145180112Y-70672438D01*
X145180112Y-70672438D02*
X145227731Y-70720057D01*
X145656303Y-71624819D02*
X145656303Y-70624819D01*
X145656303Y-70624819D02*
X145894398Y-70624819D01*
X145894398Y-70624819D02*
X146037255Y-70672438D01*
X146037255Y-70672438D02*
X146132493Y-70767676D01*
X146132493Y-70767676D02*
X146180112Y-70862914D01*
X146180112Y-70862914D02*
X146227731Y-71053390D01*
X146227731Y-71053390D02*
X146227731Y-71196247D01*
X146227731Y-71196247D02*
X146180112Y-71386723D01*
X146180112Y-71386723D02*
X146132493Y-71481961D01*
X146132493Y-71481961D02*
X146037255Y-71577200D01*
X146037255Y-71577200D02*
X145894398Y-71624819D01*
X145894398Y-71624819D02*
X145656303Y-71624819D01*
D11*
X130175000Y-60325000D02*
X160655000Y-60325000D01*
X160655000Y-86995000D01*
X130175000Y-86995000D01*
X130175000Y-60325000D01*
X165735000Y-71120000D02*
X189865000Y-71120000D01*
X189865000Y-111760000D01*
X165735000Y-111760000D01*
X165735000Y-71120000D01*
D12*
X164805225Y-113610828D02*
X165662368Y-113610828D01*
X165233796Y-115110828D02*
X165233796Y-113610828D01*
X166019510Y-113610828D02*
X167019510Y-115110828D01*
X167019510Y-113610828D02*
X166019510Y-115110828D01*
X165876653Y-117525828D02*
X165376653Y-116811542D01*
X165019510Y-117525828D02*
X165019510Y-116025828D01*
X165019510Y-116025828D02*
X165590939Y-116025828D01*
X165590939Y-116025828D02*
X165733796Y-116097257D01*
X165733796Y-116097257D02*
X165805225Y-116168685D01*
X165805225Y-116168685D02*
X165876653Y-116311542D01*
X165876653Y-116311542D02*
X165876653Y-116525828D01*
X165876653Y-116525828D02*
X165805225Y-116668685D01*
X165805225Y-116668685D02*
X165733796Y-116740114D01*
X165733796Y-116740114D02*
X165590939Y-116811542D01*
X165590939Y-116811542D02*
X165019510Y-116811542D01*
X166376653Y-116025828D02*
X167376653Y-117525828D01*
X167376653Y-116025828D02*
X166376653Y-117525828D01*
X164805225Y-118440828D02*
X165305225Y-119940828D01*
X165305225Y-119940828D02*
X165805225Y-118440828D01*
X167162367Y-119797971D02*
X167090939Y-119869400D01*
X167090939Y-119869400D02*
X166876653Y-119940828D01*
X166876653Y-119940828D02*
X166733796Y-119940828D01*
X166733796Y-119940828D02*
X166519510Y-119869400D01*
X166519510Y-119869400D02*
X166376653Y-119726542D01*
X166376653Y-119726542D02*
X166305224Y-119583685D01*
X166305224Y-119583685D02*
X166233796Y-119297971D01*
X166233796Y-119297971D02*
X166233796Y-119083685D01*
X166233796Y-119083685D02*
X166305224Y-118797971D01*
X166305224Y-118797971D02*
X166376653Y-118655114D01*
X166376653Y-118655114D02*
X166519510Y-118512257D01*
X166519510Y-118512257D02*
X166733796Y-118440828D01*
X166733796Y-118440828D02*
X166876653Y-118440828D01*
X166876653Y-118440828D02*
X167090939Y-118512257D01*
X167090939Y-118512257D02*
X167162367Y-118583685D01*
X168662367Y-119797971D02*
X168590939Y-119869400D01*
X168590939Y-119869400D02*
X168376653Y-119940828D01*
X168376653Y-119940828D02*
X168233796Y-119940828D01*
X168233796Y-119940828D02*
X168019510Y-119869400D01*
X168019510Y-119869400D02*
X167876653Y-119726542D01*
X167876653Y-119726542D02*
X167805224Y-119583685D01*
X167805224Y-119583685D02*
X167733796Y-119297971D01*
X167733796Y-119297971D02*
X167733796Y-119083685D01*
X167733796Y-119083685D02*
X167805224Y-118797971D01*
X167805224Y-118797971D02*
X167876653Y-118655114D01*
X167876653Y-118655114D02*
X168019510Y-118512257D01*
X168019510Y-118512257D02*
X168233796Y-118440828D01*
X168233796Y-118440828D02*
X168376653Y-118440828D01*
X168376653Y-118440828D02*
X168590939Y-118512257D01*
X168590939Y-118512257D02*
X168662367Y-118583685D01*
X165805225Y-120927257D02*
X165662368Y-120855828D01*
X165662368Y-120855828D02*
X165448082Y-120855828D01*
X165448082Y-120855828D02*
X165233796Y-120927257D01*
X165233796Y-120927257D02*
X165090939Y-121070114D01*
X165090939Y-121070114D02*
X165019510Y-121212971D01*
X165019510Y-121212971D02*
X164948082Y-121498685D01*
X164948082Y-121498685D02*
X164948082Y-121712971D01*
X164948082Y-121712971D02*
X165019510Y-121998685D01*
X165019510Y-121998685D02*
X165090939Y-122141542D01*
X165090939Y-122141542D02*
X165233796Y-122284400D01*
X165233796Y-122284400D02*
X165448082Y-122355828D01*
X165448082Y-122355828D02*
X165590939Y-122355828D01*
X165590939Y-122355828D02*
X165805225Y-122284400D01*
X165805225Y-122284400D02*
X165876653Y-122212971D01*
X165876653Y-122212971D02*
X165876653Y-121712971D01*
X165876653Y-121712971D02*
X165590939Y-121712971D01*
X166519510Y-122355828D02*
X166519510Y-120855828D01*
X166519510Y-120855828D02*
X167376653Y-122355828D01*
X167376653Y-122355828D02*
X167376653Y-120855828D01*
X168090939Y-122355828D02*
X168090939Y-120855828D01*
X168090939Y-120855828D02*
X168448082Y-120855828D01*
X168448082Y-120855828D02*
X168662368Y-120927257D01*
X168662368Y-120927257D02*
X168805225Y-121070114D01*
X168805225Y-121070114D02*
X168876654Y-121212971D01*
X168876654Y-121212971D02*
X168948082Y-121498685D01*
X168948082Y-121498685D02*
X168948082Y-121712971D01*
X168948082Y-121712971D02*
X168876654Y-121998685D01*
X168876654Y-121998685D02*
X168805225Y-122141542D01*
X168805225Y-122141542D02*
X168662368Y-122284400D01*
X168662368Y-122284400D02*
X168448082Y-122355828D01*
X168448082Y-122355828D02*
X168090939Y-122355828D01*
D10*
X143045112Y-82335414D02*
X143295112Y-83085414D01*
X143295112Y-83085414D02*
X143545112Y-82335414D01*
X144223683Y-83013985D02*
X144187969Y-83049700D01*
X144187969Y-83049700D02*
X144080826Y-83085414D01*
X144080826Y-83085414D02*
X144009398Y-83085414D01*
X144009398Y-83085414D02*
X143902255Y-83049700D01*
X143902255Y-83049700D02*
X143830826Y-82978271D01*
X143830826Y-82978271D02*
X143795112Y-82906842D01*
X143795112Y-82906842D02*
X143759398Y-82763985D01*
X143759398Y-82763985D02*
X143759398Y-82656842D01*
X143759398Y-82656842D02*
X143795112Y-82513985D01*
X143795112Y-82513985D02*
X143830826Y-82442557D01*
X143830826Y-82442557D02*
X143902255Y-82371128D01*
X143902255Y-82371128D02*
X144009398Y-82335414D01*
X144009398Y-82335414D02*
X144080826Y-82335414D01*
X144080826Y-82335414D02*
X144187969Y-82371128D01*
X144187969Y-82371128D02*
X144223683Y-82406842D01*
X144973683Y-83013985D02*
X144937969Y-83049700D01*
X144937969Y-83049700D02*
X144830826Y-83085414D01*
X144830826Y-83085414D02*
X144759398Y-83085414D01*
X144759398Y-83085414D02*
X144652255Y-83049700D01*
X144652255Y-83049700D02*
X144580826Y-82978271D01*
X144580826Y-82978271D02*
X144545112Y-82906842D01*
X144545112Y-82906842D02*
X144509398Y-82763985D01*
X144509398Y-82763985D02*
X144509398Y-82656842D01*
X144509398Y-82656842D02*
X144545112Y-82513985D01*
X144545112Y-82513985D02*
X144580826Y-82442557D01*
X144580826Y-82442557D02*
X144652255Y-82371128D01*
X144652255Y-82371128D02*
X144759398Y-82335414D01*
X144759398Y-82335414D02*
X144830826Y-82335414D01*
X144830826Y-82335414D02*
X144937969Y-82371128D01*
X144937969Y-82371128D02*
X144973683Y-82406842D01*
X146259398Y-82371128D02*
X146187970Y-82335414D01*
X146187970Y-82335414D02*
X146080827Y-82335414D01*
X146080827Y-82335414D02*
X145973684Y-82371128D01*
X145973684Y-82371128D02*
X145902255Y-82442557D01*
X145902255Y-82442557D02*
X145866541Y-82513985D01*
X145866541Y-82513985D02*
X145830827Y-82656842D01*
X145830827Y-82656842D02*
X145830827Y-82763985D01*
X145830827Y-82763985D02*
X145866541Y-82906842D01*
X145866541Y-82906842D02*
X145902255Y-82978271D01*
X145902255Y-82978271D02*
X145973684Y-83049700D01*
X145973684Y-83049700D02*
X146080827Y-83085414D01*
X146080827Y-83085414D02*
X146152255Y-83085414D01*
X146152255Y-83085414D02*
X146259398Y-83049700D01*
X146259398Y-83049700D02*
X146295112Y-83013985D01*
X146295112Y-83013985D02*
X146295112Y-82763985D01*
X146295112Y-82763985D02*
X146152255Y-82763985D01*
X146616541Y-83085414D02*
X146616541Y-82335414D01*
X146616541Y-82335414D02*
X147045112Y-83085414D01*
X147045112Y-83085414D02*
X147045112Y-82335414D01*
X147402255Y-83085414D02*
X147402255Y-82335414D01*
X147402255Y-82335414D02*
X147580826Y-82335414D01*
X147580826Y-82335414D02*
X147687969Y-82371128D01*
X147687969Y-82371128D02*
X147759398Y-82442557D01*
X147759398Y-82442557D02*
X147795112Y-82513985D01*
X147795112Y-82513985D02*
X147830826Y-82656842D01*
X147830826Y-82656842D02*
X147830826Y-82763985D01*
X147830826Y-82763985D02*
X147795112Y-82906842D01*
X147795112Y-82906842D02*
X147759398Y-82978271D01*
X147759398Y-82978271D02*
X147687969Y-83049700D01*
X147687969Y-83049700D02*
X147580826Y-83085414D01*
X147580826Y-83085414D02*
X147402255Y-83085414D01*
X148687970Y-83049700D02*
X148795113Y-83085414D01*
X148795113Y-83085414D02*
X148973684Y-83085414D01*
X148973684Y-83085414D02*
X149045113Y-83049700D01*
X149045113Y-83049700D02*
X149080827Y-83013985D01*
X149080827Y-83013985D02*
X149116541Y-82942557D01*
X149116541Y-82942557D02*
X149116541Y-82871128D01*
X149116541Y-82871128D02*
X149080827Y-82799700D01*
X149080827Y-82799700D02*
X149045113Y-82763985D01*
X149045113Y-82763985D02*
X148973684Y-82728271D01*
X148973684Y-82728271D02*
X148830827Y-82692557D01*
X148830827Y-82692557D02*
X148759398Y-82656842D01*
X148759398Y-82656842D02*
X148723684Y-82621128D01*
X148723684Y-82621128D02*
X148687970Y-82549700D01*
X148687970Y-82549700D02*
X148687970Y-82478271D01*
X148687970Y-82478271D02*
X148723684Y-82406842D01*
X148723684Y-82406842D02*
X148759398Y-82371128D01*
X148759398Y-82371128D02*
X148830827Y-82335414D01*
X148830827Y-82335414D02*
X149009398Y-82335414D01*
X149009398Y-82335414D02*
X149116541Y-82371128D01*
X149437970Y-83085414D02*
X149437970Y-82335414D01*
X149437970Y-82335414D02*
X149616541Y-82335414D01*
X149616541Y-82335414D02*
X149723684Y-82371128D01*
X149723684Y-82371128D02*
X149795113Y-82442557D01*
X149795113Y-82442557D02*
X149830827Y-82513985D01*
X149830827Y-82513985D02*
X149866541Y-82656842D01*
X149866541Y-82656842D02*
X149866541Y-82763985D01*
X149866541Y-82763985D02*
X149830827Y-82906842D01*
X149830827Y-82906842D02*
X149795113Y-82978271D01*
X149795113Y-82978271D02*
X149723684Y-83049700D01*
X149723684Y-83049700D02*
X149616541Y-83085414D01*
X149616541Y-83085414D02*
X149437970Y-83085414D01*
X150152256Y-82871128D02*
X150509399Y-82871128D01*
X150080827Y-83085414D02*
X150330827Y-82335414D01*
X150330827Y-82335414D02*
X150580827Y-83085414D01*
X151366542Y-83049700D02*
X151473685Y-83085414D01*
X151473685Y-83085414D02*
X151652256Y-83085414D01*
X151652256Y-83085414D02*
X151723685Y-83049700D01*
X151723685Y-83049700D02*
X151759399Y-83013985D01*
X151759399Y-83013985D02*
X151795113Y-82942557D01*
X151795113Y-82942557D02*
X151795113Y-82871128D01*
X151795113Y-82871128D02*
X151759399Y-82799700D01*
X151759399Y-82799700D02*
X151723685Y-82763985D01*
X151723685Y-82763985D02*
X151652256Y-82728271D01*
X151652256Y-82728271D02*
X151509399Y-82692557D01*
X151509399Y-82692557D02*
X151437970Y-82656842D01*
X151437970Y-82656842D02*
X151402256Y-82621128D01*
X151402256Y-82621128D02*
X151366542Y-82549700D01*
X151366542Y-82549700D02*
X151366542Y-82478271D01*
X151366542Y-82478271D02*
X151402256Y-82406842D01*
X151402256Y-82406842D02*
X151437970Y-82371128D01*
X151437970Y-82371128D02*
X151509399Y-82335414D01*
X151509399Y-82335414D02*
X151687970Y-82335414D01*
X151687970Y-82335414D02*
X151795113Y-82371128D01*
X152545113Y-83013985D02*
X152509399Y-83049700D01*
X152509399Y-83049700D02*
X152402256Y-83085414D01*
X152402256Y-83085414D02*
X152330828Y-83085414D01*
X152330828Y-83085414D02*
X152223685Y-83049700D01*
X152223685Y-83049700D02*
X152152256Y-82978271D01*
X152152256Y-82978271D02*
X152116542Y-82906842D01*
X152116542Y-82906842D02*
X152080828Y-82763985D01*
X152080828Y-82763985D02*
X152080828Y-82656842D01*
X152080828Y-82656842D02*
X152116542Y-82513985D01*
X152116542Y-82513985D02*
X152152256Y-82442557D01*
X152152256Y-82442557D02*
X152223685Y-82371128D01*
X152223685Y-82371128D02*
X152330828Y-82335414D01*
X152330828Y-82335414D02*
X152402256Y-82335414D01*
X152402256Y-82335414D02*
X152509399Y-82371128D01*
X152509399Y-82371128D02*
X152545113Y-82406842D01*
X153223685Y-83085414D02*
X152866542Y-83085414D01*
X152866542Y-83085414D02*
X152866542Y-82335414D01*
X166306666Y-79469819D02*
X165973333Y-78993628D01*
X165735238Y-79469819D02*
X165735238Y-78469819D01*
X165735238Y-78469819D02*
X166116190Y-78469819D01*
X166116190Y-78469819D02*
X166211428Y-78517438D01*
X166211428Y-78517438D02*
X166259047Y-78565057D01*
X166259047Y-78565057D02*
X166306666Y-78660295D01*
X166306666Y-78660295D02*
X166306666Y-78803152D01*
X166306666Y-78803152D02*
X166259047Y-78898390D01*
X166259047Y-78898390D02*
X166211428Y-78946009D01*
X166211428Y-78946009D02*
X166116190Y-78993628D01*
X166116190Y-78993628D02*
X165735238Y-78993628D01*
X166735238Y-78946009D02*
X167068571Y-78946009D01*
X167211428Y-79469819D02*
X166735238Y-79469819D01*
X166735238Y-79469819D02*
X166735238Y-78469819D01*
X166735238Y-78469819D02*
X167211428Y-78469819D01*
X167973333Y-78946009D02*
X167640000Y-78946009D01*
X167640000Y-79469819D02*
X167640000Y-78469819D01*
X167640000Y-78469819D02*
X168116190Y-78469819D01*
X168640000Y-78469819D02*
X168640000Y-78707914D01*
X168401905Y-78612676D02*
X168640000Y-78707914D01*
X168640000Y-78707914D02*
X168878095Y-78612676D01*
X168497143Y-78898390D02*
X168640000Y-78707914D01*
X168640000Y-78707914D02*
X168782857Y-78898390D01*
X169401905Y-78469819D02*
X169401905Y-78707914D01*
X169163810Y-78612676D02*
X169401905Y-78707914D01*
X169401905Y-78707914D02*
X169640000Y-78612676D01*
X169259048Y-78898390D02*
X169401905Y-78707914D01*
X169401905Y-78707914D02*
X169544762Y-78898390D01*
X186626666Y-79469819D02*
X186293333Y-78993628D01*
X186055238Y-79469819D02*
X186055238Y-78469819D01*
X186055238Y-78469819D02*
X186436190Y-78469819D01*
X186436190Y-78469819D02*
X186531428Y-78517438D01*
X186531428Y-78517438D02*
X186579047Y-78565057D01*
X186579047Y-78565057D02*
X186626666Y-78660295D01*
X186626666Y-78660295D02*
X186626666Y-78803152D01*
X186626666Y-78803152D02*
X186579047Y-78898390D01*
X186579047Y-78898390D02*
X186531428Y-78946009D01*
X186531428Y-78946009D02*
X186436190Y-78993628D01*
X186436190Y-78993628D02*
X186055238Y-78993628D01*
X187055238Y-78946009D02*
X187388571Y-78946009D01*
X187531428Y-79469819D02*
X187055238Y-79469819D01*
X187055238Y-79469819D02*
X187055238Y-78469819D01*
X187055238Y-78469819D02*
X187531428Y-78469819D01*
X188293333Y-78946009D02*
X187960000Y-78946009D01*
X187960000Y-79469819D02*
X187960000Y-78469819D01*
X187960000Y-78469819D02*
X188436190Y-78469819D01*
X188960000Y-78469819D02*
X188960000Y-78707914D01*
X188721905Y-78612676D02*
X188960000Y-78707914D01*
X188960000Y-78707914D02*
X189198095Y-78612676D01*
X188817143Y-78898390D02*
X188960000Y-78707914D01*
X188960000Y-78707914D02*
X189102857Y-78898390D01*
X189721905Y-78469819D02*
X189721905Y-78707914D01*
X189483810Y-78612676D02*
X189721905Y-78707914D01*
X189721905Y-78707914D02*
X189960000Y-78612676D01*
X189579048Y-78898390D02*
X189721905Y-78707914D01*
X189721905Y-78707914D02*
X189864762Y-78898390D01*
X176466666Y-109314819D02*
X176133333Y-108838628D01*
X175895238Y-109314819D02*
X175895238Y-108314819D01*
X175895238Y-108314819D02*
X176276190Y-108314819D01*
X176276190Y-108314819D02*
X176371428Y-108362438D01*
X176371428Y-108362438D02*
X176419047Y-108410057D01*
X176419047Y-108410057D02*
X176466666Y-108505295D01*
X176466666Y-108505295D02*
X176466666Y-108648152D01*
X176466666Y-108648152D02*
X176419047Y-108743390D01*
X176419047Y-108743390D02*
X176371428Y-108791009D01*
X176371428Y-108791009D02*
X176276190Y-108838628D01*
X176276190Y-108838628D02*
X175895238Y-108838628D01*
X176895238Y-108791009D02*
X177228571Y-108791009D01*
X177371428Y-109314819D02*
X176895238Y-109314819D01*
X176895238Y-109314819D02*
X176895238Y-108314819D01*
X176895238Y-108314819D02*
X177371428Y-108314819D01*
X178133333Y-108791009D02*
X177800000Y-108791009D01*
X177800000Y-109314819D02*
X177800000Y-108314819D01*
X177800000Y-108314819D02*
X178276190Y-108314819D01*
X178800000Y-108314819D02*
X178800000Y-108552914D01*
X178561905Y-108457676D02*
X178800000Y-108552914D01*
X178800000Y-108552914D02*
X179038095Y-108457676D01*
X178657143Y-108743390D02*
X178800000Y-108552914D01*
X178800000Y-108552914D02*
X178942857Y-108743390D01*
X179561905Y-108314819D02*
X179561905Y-108552914D01*
X179323810Y-108457676D02*
X179561905Y-108552914D01*
X179561905Y-108552914D02*
X179800000Y-108457676D01*
X179419048Y-108743390D02*
X179561905Y-108552914D01*
X179561905Y-108552914D02*
X179704762Y-108743390D01*
X145923095Y-114389819D02*
X145923095Y-115199342D01*
X145923095Y-115199342D02*
X145970714Y-115294580D01*
X145970714Y-115294580D02*
X146018333Y-115342200D01*
X146018333Y-115342200D02*
X146113571Y-115389819D01*
X146113571Y-115389819D02*
X146304047Y-115389819D01*
X146304047Y-115389819D02*
X146399285Y-115342200D01*
X146399285Y-115342200D02*
X146446904Y-115294580D01*
X146446904Y-115294580D02*
X146494523Y-115199342D01*
X146494523Y-115199342D02*
X146494523Y-114389819D01*
X146923095Y-114485057D02*
X146970714Y-114437438D01*
X146970714Y-114437438D02*
X147065952Y-114389819D01*
X147065952Y-114389819D02*
X147304047Y-114389819D01*
X147304047Y-114389819D02*
X147399285Y-114437438D01*
X147399285Y-114437438D02*
X147446904Y-114485057D01*
X147446904Y-114485057D02*
X147494523Y-114580295D01*
X147494523Y-114580295D02*
X147494523Y-114675533D01*
X147494523Y-114675533D02*
X147446904Y-114818390D01*
X147446904Y-114818390D02*
X146875476Y-115389819D01*
X146875476Y-115389819D02*
X147494523Y-115389819D01*
X142875000Y-96368519D02*
X142875000Y-96606614D01*
X142636905Y-96511376D02*
X142875000Y-96606614D01*
X142875000Y-96606614D02*
X143113095Y-96511376D01*
X142732143Y-96797090D02*
X142875000Y-96606614D01*
X142875000Y-96606614D02*
X143017857Y-96797090D01*
X142875000Y-96368519D02*
X142875000Y-96606614D01*
X142636905Y-96511376D02*
X142875000Y-96606614D01*
X142875000Y-96606614D02*
X143113095Y-96511376D01*
X142732143Y-96797090D02*
X142875000Y-96606614D01*
X142875000Y-96606614D02*
X143017857Y-96797090D01*
X159635420Y-118808334D02*
X160349705Y-118808334D01*
X160349705Y-118808334D02*
X160492562Y-118855953D01*
X160492562Y-118855953D02*
X160587801Y-118951191D01*
X160587801Y-118951191D02*
X160635420Y-119094048D01*
X160635420Y-119094048D02*
X160635420Y-119189286D01*
X160635420Y-117808334D02*
X160635420Y-118379762D01*
X160635420Y-118094048D02*
X159635420Y-118094048D01*
X159635420Y-118094048D02*
X159778277Y-118189286D01*
X159778277Y-118189286D02*
X159873515Y-118284524D01*
X159873515Y-118284524D02*
X159921134Y-118379762D01*
X146518333Y-91429819D02*
X146185000Y-90953628D01*
X145946905Y-91429819D02*
X145946905Y-90429819D01*
X145946905Y-90429819D02*
X146327857Y-90429819D01*
X146327857Y-90429819D02*
X146423095Y-90477438D01*
X146423095Y-90477438D02*
X146470714Y-90525057D01*
X146470714Y-90525057D02*
X146518333Y-90620295D01*
X146518333Y-90620295D02*
X146518333Y-90763152D01*
X146518333Y-90763152D02*
X146470714Y-90858390D01*
X146470714Y-90858390D02*
X146423095Y-90906009D01*
X146423095Y-90906009D02*
X146327857Y-90953628D01*
X146327857Y-90953628D02*
X145946905Y-90953628D01*
X146851667Y-90429819D02*
X147470714Y-90429819D01*
X147470714Y-90429819D02*
X147137381Y-90810771D01*
X147137381Y-90810771D02*
X147280238Y-90810771D01*
X147280238Y-90810771D02*
X147375476Y-90858390D01*
X147375476Y-90858390D02*
X147423095Y-90906009D01*
X147423095Y-90906009D02*
X147470714Y-91001247D01*
X147470714Y-91001247D02*
X147470714Y-91239342D01*
X147470714Y-91239342D02*
X147423095Y-91334580D01*
X147423095Y-91334580D02*
X147375476Y-91382200D01*
X147375476Y-91382200D02*
X147280238Y-91429819D01*
X147280238Y-91429819D02*
X146994524Y-91429819D01*
X146994524Y-91429819D02*
X146899286Y-91382200D01*
X146899286Y-91382200D02*
X146851667Y-91334580D01*
X135088333Y-130459819D02*
X134755000Y-129983628D01*
X134516905Y-130459819D02*
X134516905Y-129459819D01*
X134516905Y-129459819D02*
X134897857Y-129459819D01*
X134897857Y-129459819D02*
X134993095Y-129507438D01*
X134993095Y-129507438D02*
X135040714Y-129555057D01*
X135040714Y-129555057D02*
X135088333Y-129650295D01*
X135088333Y-129650295D02*
X135088333Y-129793152D01*
X135088333Y-129793152D02*
X135040714Y-129888390D01*
X135040714Y-129888390D02*
X134993095Y-129936009D01*
X134993095Y-129936009D02*
X134897857Y-129983628D01*
X134897857Y-129983628D02*
X134516905Y-129983628D01*
X135469286Y-129555057D02*
X135516905Y-129507438D01*
X135516905Y-129507438D02*
X135612143Y-129459819D01*
X135612143Y-129459819D02*
X135850238Y-129459819D01*
X135850238Y-129459819D02*
X135945476Y-129507438D01*
X135945476Y-129507438D02*
X135993095Y-129555057D01*
X135993095Y-129555057D02*
X136040714Y-129650295D01*
X136040714Y-129650295D02*
X136040714Y-129745533D01*
X136040714Y-129745533D02*
X135993095Y-129888390D01*
X135993095Y-129888390D02*
X135421667Y-130459819D01*
X135421667Y-130459819D02*
X136040714Y-130459819D01*
X128259819Y-101131666D02*
X127783628Y-101464999D01*
X128259819Y-101703094D02*
X127259819Y-101703094D01*
X127259819Y-101703094D02*
X127259819Y-101322142D01*
X127259819Y-101322142D02*
X127307438Y-101226904D01*
X127307438Y-101226904D02*
X127355057Y-101179285D01*
X127355057Y-101179285D02*
X127450295Y-101131666D01*
X127450295Y-101131666D02*
X127593152Y-101131666D01*
X127593152Y-101131666D02*
X127688390Y-101179285D01*
X127688390Y-101179285D02*
X127736009Y-101226904D01*
X127736009Y-101226904D02*
X127783628Y-101322142D01*
X127783628Y-101322142D02*
X127783628Y-101703094D01*
X128259819Y-100179285D02*
X128259819Y-100750713D01*
X128259819Y-100464999D02*
X127259819Y-100464999D01*
X127259819Y-100464999D02*
X127402676Y-100560237D01*
X127402676Y-100560237D02*
X127497914Y-100655475D01*
X127497914Y-100655475D02*
X127545533Y-100750713D01*
X153971666Y-93009819D02*
X153971666Y-93724104D01*
X153971666Y-93724104D02*
X153924047Y-93866961D01*
X153924047Y-93866961D02*
X153828809Y-93962200D01*
X153828809Y-93962200D02*
X153685952Y-94009819D01*
X153685952Y-94009819D02*
X153590714Y-94009819D01*
X154876428Y-93343152D02*
X154876428Y-94009819D01*
X154638333Y-92962200D02*
X154400238Y-93676485D01*
X154400238Y-93676485D02*
X155019285Y-93676485D01*
X134921666Y-95549819D02*
X134921666Y-96264104D01*
X134921666Y-96264104D02*
X134874047Y-96406961D01*
X134874047Y-96406961D02*
X134778809Y-96502200D01*
X134778809Y-96502200D02*
X134635952Y-96549819D01*
X134635952Y-96549819D02*
X134540714Y-96549819D01*
X135302619Y-95549819D02*
X135921666Y-95549819D01*
X135921666Y-95549819D02*
X135588333Y-95930771D01*
X135588333Y-95930771D02*
X135731190Y-95930771D01*
X135731190Y-95930771D02*
X135826428Y-95978390D01*
X135826428Y-95978390D02*
X135874047Y-96026009D01*
X135874047Y-96026009D02*
X135921666Y-96121247D01*
X135921666Y-96121247D02*
X135921666Y-96359342D01*
X135921666Y-96359342D02*
X135874047Y-96454580D01*
X135874047Y-96454580D02*
X135826428Y-96502200D01*
X135826428Y-96502200D02*
X135731190Y-96549819D01*
X135731190Y-96549819D02*
X135445476Y-96549819D01*
X135445476Y-96549819D02*
X135350238Y-96502200D01*
X135350238Y-96502200D02*
X135302619Y-96454580D01*
X160448333Y-102634580D02*
X160400714Y-102682200D01*
X160400714Y-102682200D02*
X160257857Y-102729819D01*
X160257857Y-102729819D02*
X160162619Y-102729819D01*
X160162619Y-102729819D02*
X160019762Y-102682200D01*
X160019762Y-102682200D02*
X159924524Y-102586961D01*
X159924524Y-102586961D02*
X159876905Y-102491723D01*
X159876905Y-102491723D02*
X159829286Y-102301247D01*
X159829286Y-102301247D02*
X159829286Y-102158390D01*
X159829286Y-102158390D02*
X159876905Y-101967914D01*
X159876905Y-101967914D02*
X159924524Y-101872676D01*
X159924524Y-101872676D02*
X160019762Y-101777438D01*
X160019762Y-101777438D02*
X160162619Y-101729819D01*
X160162619Y-101729819D02*
X160257857Y-101729819D01*
X160257857Y-101729819D02*
X160400714Y-101777438D01*
X160400714Y-101777438D02*
X160448333Y-101825057D01*
X161353095Y-101729819D02*
X160876905Y-101729819D01*
X160876905Y-101729819D02*
X160829286Y-102206009D01*
X160829286Y-102206009D02*
X160876905Y-102158390D01*
X160876905Y-102158390D02*
X160972143Y-102110771D01*
X160972143Y-102110771D02*
X161210238Y-102110771D01*
X161210238Y-102110771D02*
X161305476Y-102158390D01*
X161305476Y-102158390D02*
X161353095Y-102206009D01*
X161353095Y-102206009D02*
X161400714Y-102301247D01*
X161400714Y-102301247D02*
X161400714Y-102539342D01*
X161400714Y-102539342D02*
X161353095Y-102634580D01*
X161353095Y-102634580D02*
X161305476Y-102682200D01*
X161305476Y-102682200D02*
X161210238Y-102729819D01*
X161210238Y-102729819D02*
X160972143Y-102729819D01*
X160972143Y-102729819D02*
X160876905Y-102682200D01*
X160876905Y-102682200D02*
X160829286Y-102634580D01*
X157164580Y-120181666D02*
X157212200Y-120229285D01*
X157212200Y-120229285D02*
X157259819Y-120372142D01*
X157259819Y-120372142D02*
X157259819Y-120467380D01*
X157259819Y-120467380D02*
X157212200Y-120610237D01*
X157212200Y-120610237D02*
X157116961Y-120705475D01*
X157116961Y-120705475D02*
X157021723Y-120753094D01*
X157021723Y-120753094D02*
X156831247Y-120800713D01*
X156831247Y-120800713D02*
X156688390Y-120800713D01*
X156688390Y-120800713D02*
X156497914Y-120753094D01*
X156497914Y-120753094D02*
X156402676Y-120705475D01*
X156402676Y-120705475D02*
X156307438Y-120610237D01*
X156307438Y-120610237D02*
X156259819Y-120467380D01*
X156259819Y-120467380D02*
X156259819Y-120372142D01*
X156259819Y-120372142D02*
X156307438Y-120229285D01*
X156307438Y-120229285D02*
X156355057Y-120181666D01*
X156593152Y-119324523D02*
X157259819Y-119324523D01*
X156212200Y-119562618D02*
X156926485Y-119800713D01*
X156926485Y-119800713D02*
X156926485Y-119181666D01*
X160488333Y-97554580D02*
X160440714Y-97602200D01*
X160440714Y-97602200D02*
X160297857Y-97649819D01*
X160297857Y-97649819D02*
X160202619Y-97649819D01*
X160202619Y-97649819D02*
X160059762Y-97602200D01*
X160059762Y-97602200D02*
X159964524Y-97506961D01*
X159964524Y-97506961D02*
X159916905Y-97411723D01*
X159916905Y-97411723D02*
X159869286Y-97221247D01*
X159869286Y-97221247D02*
X159869286Y-97078390D01*
X159869286Y-97078390D02*
X159916905Y-96887914D01*
X159916905Y-96887914D02*
X159964524Y-96792676D01*
X159964524Y-96792676D02*
X160059762Y-96697438D01*
X160059762Y-96697438D02*
X160202619Y-96649819D01*
X160202619Y-96649819D02*
X160297857Y-96649819D01*
X160297857Y-96649819D02*
X160440714Y-96697438D01*
X160440714Y-96697438D02*
X160488333Y-96745057D01*
X160821667Y-96649819D02*
X161440714Y-96649819D01*
X161440714Y-96649819D02*
X161107381Y-97030771D01*
X161107381Y-97030771D02*
X161250238Y-97030771D01*
X161250238Y-97030771D02*
X161345476Y-97078390D01*
X161345476Y-97078390D02*
X161393095Y-97126009D01*
X161393095Y-97126009D02*
X161440714Y-97221247D01*
X161440714Y-97221247D02*
X161440714Y-97459342D01*
X161440714Y-97459342D02*
X161393095Y-97554580D01*
X161393095Y-97554580D02*
X161345476Y-97602200D01*
X161345476Y-97602200D02*
X161250238Y-97649819D01*
X161250238Y-97649819D02*
X160964524Y-97649819D01*
X160964524Y-97649819D02*
X160869286Y-97602200D01*
X160869286Y-97602200D02*
X160821667Y-97554580D01*
X160488333Y-92234580D02*
X160440714Y-92282200D01*
X160440714Y-92282200D02*
X160297857Y-92329819D01*
X160297857Y-92329819D02*
X160202619Y-92329819D01*
X160202619Y-92329819D02*
X160059762Y-92282200D01*
X160059762Y-92282200D02*
X159964524Y-92186961D01*
X159964524Y-92186961D02*
X159916905Y-92091723D01*
X159916905Y-92091723D02*
X159869286Y-91901247D01*
X159869286Y-91901247D02*
X159869286Y-91758390D01*
X159869286Y-91758390D02*
X159916905Y-91567914D01*
X159916905Y-91567914D02*
X159964524Y-91472676D01*
X159964524Y-91472676D02*
X160059762Y-91377438D01*
X160059762Y-91377438D02*
X160202619Y-91329819D01*
X160202619Y-91329819D02*
X160297857Y-91329819D01*
X160297857Y-91329819D02*
X160440714Y-91377438D01*
X160440714Y-91377438D02*
X160488333Y-91425057D01*
X160869286Y-91425057D02*
X160916905Y-91377438D01*
X160916905Y-91377438D02*
X161012143Y-91329819D01*
X161012143Y-91329819D02*
X161250238Y-91329819D01*
X161250238Y-91329819D02*
X161345476Y-91377438D01*
X161345476Y-91377438D02*
X161393095Y-91425057D01*
X161393095Y-91425057D02*
X161440714Y-91520295D01*
X161440714Y-91520295D02*
X161440714Y-91615533D01*
X161440714Y-91615533D02*
X161393095Y-91758390D01*
X161393095Y-91758390D02*
X160821667Y-92329819D01*
X160821667Y-92329819D02*
X161440714Y-92329819D01*
X160448333Y-87394580D02*
X160400714Y-87442200D01*
X160400714Y-87442200D02*
X160257857Y-87489819D01*
X160257857Y-87489819D02*
X160162619Y-87489819D01*
X160162619Y-87489819D02*
X160019762Y-87442200D01*
X160019762Y-87442200D02*
X159924524Y-87346961D01*
X159924524Y-87346961D02*
X159876905Y-87251723D01*
X159876905Y-87251723D02*
X159829286Y-87061247D01*
X159829286Y-87061247D02*
X159829286Y-86918390D01*
X159829286Y-86918390D02*
X159876905Y-86727914D01*
X159876905Y-86727914D02*
X159924524Y-86632676D01*
X159924524Y-86632676D02*
X160019762Y-86537438D01*
X160019762Y-86537438D02*
X160162619Y-86489819D01*
X160162619Y-86489819D02*
X160257857Y-86489819D01*
X160257857Y-86489819D02*
X160400714Y-86537438D01*
X160400714Y-86537438D02*
X160448333Y-86585057D01*
X161400714Y-87489819D02*
X160829286Y-87489819D01*
X161115000Y-87489819D02*
X161115000Y-86489819D01*
X161115000Y-86489819D02*
X161019762Y-86632676D01*
X161019762Y-86632676D02*
X160924524Y-86727914D01*
X160924524Y-86727914D02*
X160829286Y-86775533D01*
X138669819Y-123293094D02*
X137669819Y-123293094D01*
X137669819Y-123293094D02*
X137669819Y-123054999D01*
X137669819Y-123054999D02*
X137717438Y-122912142D01*
X137717438Y-122912142D02*
X137812676Y-122816904D01*
X137812676Y-122816904D02*
X137907914Y-122769285D01*
X137907914Y-122769285D02*
X138098390Y-122721666D01*
X138098390Y-122721666D02*
X138241247Y-122721666D01*
X138241247Y-122721666D02*
X138431723Y-122769285D01*
X138431723Y-122769285D02*
X138526961Y-122816904D01*
X138526961Y-122816904D02*
X138622200Y-122912142D01*
X138622200Y-122912142D02*
X138669819Y-123054999D01*
X138669819Y-123054999D02*
X138669819Y-123293094D01*
X137765057Y-122340713D02*
X137717438Y-122293094D01*
X137717438Y-122293094D02*
X137669819Y-122197856D01*
X137669819Y-122197856D02*
X137669819Y-121959761D01*
X137669819Y-121959761D02*
X137717438Y-121864523D01*
X137717438Y-121864523D02*
X137765057Y-121816904D01*
X137765057Y-121816904D02*
X137860295Y-121769285D01*
X137860295Y-121769285D02*
X137955533Y-121769285D01*
X137955533Y-121769285D02*
X138098390Y-121816904D01*
X138098390Y-121816904D02*
X138669819Y-122388332D01*
X138669819Y-122388332D02*
X138669819Y-121769285D01*
X137019819Y-86058333D02*
X137734104Y-86058333D01*
X137734104Y-86058333D02*
X137876961Y-86105952D01*
X137876961Y-86105952D02*
X137972200Y-86201190D01*
X137972200Y-86201190D02*
X138019819Y-86344047D01*
X138019819Y-86344047D02*
X138019819Y-86439285D01*
X137115057Y-85629761D02*
X137067438Y-85582142D01*
X137067438Y-85582142D02*
X137019819Y-85486904D01*
X137019819Y-85486904D02*
X137019819Y-85248809D01*
X137019819Y-85248809D02*
X137067438Y-85153571D01*
X137067438Y-85153571D02*
X137115057Y-85105952D01*
X137115057Y-85105952D02*
X137210295Y-85058333D01*
X137210295Y-85058333D02*
X137305533Y-85058333D01*
X137305533Y-85058333D02*
X137448390Y-85105952D01*
X137448390Y-85105952D02*
X138019819Y-85677380D01*
X138019819Y-85677380D02*
X138019819Y-85058333D01*
X135786905Y-94219819D02*
X135786905Y-93219819D01*
X135786905Y-93219819D02*
X136025000Y-93219819D01*
X136025000Y-93219819D02*
X136167857Y-93267438D01*
X136167857Y-93267438D02*
X136263095Y-93362676D01*
X136263095Y-93362676D02*
X136310714Y-93457914D01*
X136310714Y-93457914D02*
X136358333Y-93648390D01*
X136358333Y-93648390D02*
X136358333Y-93791247D01*
X136358333Y-93791247D02*
X136310714Y-93981723D01*
X136310714Y-93981723D02*
X136263095Y-94076961D01*
X136263095Y-94076961D02*
X136167857Y-94172200D01*
X136167857Y-94172200D02*
X136025000Y-94219819D01*
X136025000Y-94219819D02*
X135786905Y-94219819D01*
X137310714Y-94219819D02*
X136739286Y-94219819D01*
X137025000Y-94219819D02*
X137025000Y-93219819D01*
X137025000Y-93219819D02*
X136929762Y-93362676D01*
X136929762Y-93362676D02*
X136834524Y-93457914D01*
X136834524Y-93457914D02*
X136739286Y-93505533D01*
D13*
%TO.C,U2*%
X142811500Y-97028000D02*
X142811500Y-97342960D01*
X142811500Y-99507040D02*
X142811500Y-99884825D01*
X142811500Y-102045175D02*
X142811500Y-102424825D01*
X142811500Y-104585175D02*
X142811500Y-104964825D01*
X142811500Y-107125175D02*
X142811500Y-107504825D01*
X142811500Y-109665175D02*
X142811500Y-110044825D01*
X142811500Y-112205175D02*
X142811500Y-112584825D01*
X142811500Y-114745175D02*
X142811500Y-115124825D01*
X142811500Y-117285175D02*
X142811500Y-117664825D01*
X142811500Y-119825175D02*
X142811500Y-120204825D01*
X142811500Y-122365175D02*
X142811500Y-122744825D01*
X142811500Y-124905175D02*
X142811500Y-125284825D01*
X142811500Y-127445175D02*
X142811500Y-127824825D01*
X142811500Y-129985175D02*
X142811500Y-130364825D01*
X142811500Y-132525175D02*
X142811500Y-132842000D01*
X142811500Y-132842000D02*
X150558500Y-132842000D01*
X150558500Y-97028000D02*
X142811500Y-97028000D01*
X150558500Y-97344825D02*
X150558500Y-97028000D01*
X150558500Y-99884825D02*
X150558500Y-99505175D01*
X150558500Y-102424825D02*
X150558500Y-102045175D01*
X150558500Y-104964825D02*
X150558500Y-104585175D01*
X150558500Y-107504825D02*
X150558500Y-107125175D01*
X150558500Y-110044825D02*
X150558500Y-109665175D01*
X150558500Y-112584825D02*
X150558500Y-112205175D01*
X150558500Y-115124825D02*
X150558500Y-114745175D01*
X150558500Y-117664825D02*
X150558500Y-117285175D01*
X150558500Y-120204825D02*
X150558500Y-119825175D01*
X150558500Y-122744825D02*
X150558500Y-122365175D01*
X150558500Y-125284825D02*
X150558500Y-124905175D01*
X150558500Y-127824825D02*
X150558500Y-127445175D01*
X150558500Y-130364825D02*
X150558500Y-129985175D01*
X150558500Y-132842000D02*
X150558500Y-132525175D01*
%TO.C,J1*%
X157903601Y-123758201D02*
X163466200Y-123758201D01*
X163466200Y-123758201D02*
X163466200Y-113191801D01*
X157903601Y-113191801D02*
X157903601Y-123758201D01*
X163466200Y-113191801D02*
X157903601Y-113191801D01*
D14*
X160561601Y-125536201D02*
G75*
G03*
X159799601Y-125536201I-381000J0D01*
G01*
X159799601Y-125536201D02*
G75*
G03*
X160561601Y-125536201I381000J0D01*
G01*
D15*
%TO.C,R3*%
X149955000Y-94715000D02*
X149955000Y-94385000D01*
X143415000Y-91975000D02*
X149955000Y-91975000D01*
X143415000Y-94715000D02*
X149955000Y-94715000D01*
X143415000Y-94385000D02*
X143415000Y-94715000D01*
X143415000Y-92305000D02*
X143415000Y-91975000D01*
X149955000Y-91975000D02*
X149955000Y-92305000D01*
%TO.C,R2*%
X131985000Y-126265000D02*
X131985000Y-126595000D01*
X138525000Y-129005000D02*
X131985000Y-129005000D01*
X138525000Y-126265000D02*
X131985000Y-126265000D01*
X138525000Y-126595000D02*
X138525000Y-126265000D01*
X138525000Y-128675000D02*
X138525000Y-129005000D01*
X131985000Y-129005000D02*
X131985000Y-128675000D01*
%TO.C,R1*%
X131545000Y-97695000D02*
X131215000Y-97695000D01*
X128805000Y-104235000D02*
X128805000Y-97695000D01*
X131545000Y-104235000D02*
X131545000Y-97695000D01*
X131215000Y-104235000D02*
X131545000Y-104235000D01*
X129135000Y-104235000D02*
X128805000Y-104235000D01*
X128805000Y-97695000D02*
X129135000Y-97695000D01*
%TO.C,J4*%
X152975000Y-94555000D02*
X154305000Y-94555000D01*
X152975000Y-97155000D02*
X155635000Y-97155000D01*
X152975000Y-97215000D02*
X155635000Y-97215000D01*
X155635000Y-97155000D02*
X155635000Y-97215000D01*
X152975000Y-97155000D02*
X152975000Y-97215000D01*
X152975000Y-95885000D02*
X152975000Y-94555000D01*
%TO.C,J3*%
X133925000Y-99695000D02*
X136585000Y-99695000D01*
X133925000Y-117535000D02*
X136585000Y-117535000D01*
X133925000Y-99695000D02*
X133925000Y-117535000D01*
X133925000Y-98425000D02*
X133925000Y-97095000D01*
X136585000Y-99695000D02*
X136585000Y-117535000D01*
X133925000Y-97095000D02*
X135255000Y-97095000D01*
%TO.C,C5*%
X158145000Y-103405000D02*
X163085000Y-103405000D01*
X158145000Y-103405000D02*
X158145000Y-103720000D01*
X163085000Y-105830000D02*
X163085000Y-106145000D01*
X163085000Y-103405000D02*
X163085000Y-103720000D01*
X158145000Y-106145000D02*
X163085000Y-106145000D01*
X158145000Y-105830000D02*
X158145000Y-106145000D01*
%TO.C,C4*%
X153250000Y-117545000D02*
X152935000Y-117545000D01*
X152935000Y-117545000D02*
X152935000Y-122485000D01*
X155675000Y-122485000D02*
X155360000Y-122485000D01*
X153250000Y-122485000D02*
X152935000Y-122485000D01*
X155675000Y-117545000D02*
X155360000Y-117545000D01*
X155675000Y-117545000D02*
X155675000Y-122485000D01*
%TO.C,C3*%
X158185000Y-98325000D02*
X163125000Y-98325000D01*
X158185000Y-98325000D02*
X158185000Y-98640000D01*
X163125000Y-100750000D02*
X163125000Y-101065000D01*
X163125000Y-98325000D02*
X163125000Y-98640000D01*
X158185000Y-101065000D02*
X163125000Y-101065000D01*
X158185000Y-100750000D02*
X158185000Y-101065000D01*
%TO.C,C2*%
X158185000Y-93005000D02*
X163125000Y-93005000D01*
X158185000Y-93005000D02*
X158185000Y-93320000D01*
X163125000Y-95430000D02*
X163125000Y-95745000D01*
X163125000Y-93005000D02*
X163125000Y-93320000D01*
X158185000Y-95745000D02*
X163125000Y-95745000D01*
X158185000Y-95430000D02*
X158185000Y-95745000D01*
%TO.C,C1*%
X158145000Y-88165000D02*
X163085000Y-88165000D01*
X158145000Y-88165000D02*
X158145000Y-88480000D01*
X163085000Y-90590000D02*
X163085000Y-90905000D01*
X163085000Y-88165000D02*
X163085000Y-88480000D01*
X158145000Y-90905000D02*
X163085000Y-90905000D01*
X158145000Y-90590000D02*
X158145000Y-90905000D01*
%TO.C,D2*%
X136491000Y-120995000D02*
X136335000Y-120995000D01*
X134175000Y-120995000D02*
X134019000Y-120995000D01*
X136334836Y-123596129D02*
G75*
G03*
X136334999Y-121514040I-1079836J1041129D01*
G01*
X134019485Y-120995001D02*
G75*
G03*
X134176392Y-124227334I1235515J-1559999D01*
G01*
X134175001Y-121514040D02*
G75*
G03*
X134175164Y-123596129I1079999J-1040960D01*
G01*
X136333608Y-124227334D02*
G75*
G03*
X136490515Y-120995001I-1078608J1672334D01*
G01*
%TO.C,J2*%
X139005000Y-84395000D02*
X140335000Y-84395000D01*
X141605000Y-84395000D02*
X151825000Y-84395000D01*
X141605000Y-87055000D02*
X151825000Y-87055000D01*
X141605000Y-87055000D02*
X141605000Y-84395000D01*
X151825000Y-87055000D02*
X151825000Y-84395000D01*
X139005000Y-85725000D02*
X139005000Y-84395000D01*
%TO.C,D1*%
X138085000Y-92041000D02*
X138085000Y-91885000D01*
X138085000Y-89725000D02*
X138085000Y-89569000D01*
X135483871Y-91884836D02*
G75*
G03*
X137565960Y-91884999I1041129J1079836D01*
G01*
X138084999Y-89569485D02*
G75*
G03*
X134852666Y-89726392I-1559999J-1235515D01*
G01*
X137565960Y-89725001D02*
G75*
G03*
X135483871Y-89725164I-1040960J-1079999D01*
G01*
X134852666Y-91883608D02*
G75*
G03*
X138084999Y-92040515I1672334J1078608D01*
G01*
%TD*%
M02*
