%TF.GenerationSoftware,KiCad,Pcbnew,7.0.10-7.0.10~ubuntu23.04.1*%
%TF.CreationDate,2024-04-20T16:35:45-05:00*%
%TF.ProjectId,GPS-MINPOINT,4750532d-4d49-44e5-904f-494e542e6b69,V001*%
%TF.SameCoordinates,Original*%
%TF.FileFunction,Soldermask,Bot*%
%TF.FilePolarity,Negative*%
%FSLAX46Y46*%
G04 Gerber Fmt 4.6, Leading zero omitted, Abs format (unit mm)*
G04 Created by KiCad (PCBNEW 7.0.10-7.0.10~ubuntu23.04.1) date 2024-04-20 16:35:45*
%MOMM*%
%LPD*%
G01*
G04 APERTURE LIST*
%ADD10C,3.800000*%
%ADD11R,1.498600X1.498600*%
%ADD12C,1.498600*%
%ADD13C,1.320800*%
%ADD14C,1.600000*%
%ADD15O,1.600000X1.600000*%
%ADD16R,1.700000X1.700000*%
%ADD17O,1.700000X1.700000*%
%ADD18R,1.800000X1.800000*%
%ADD19C,1.800000*%
G04 APERTURE END LIST*
D10*
%TO.C,*%
X167640000Y-81915000D03*
%TD*%
%TO.C,REF\u002A\u002A*%
X167640000Y-81915000D03*
%TD*%
%TO.C,*%
X187960000Y-81915000D03*
%TD*%
%TO.C,REF\u002A\u002A*%
X187960000Y-81915000D03*
%TD*%
%TO.C,REF\u002A\u002A*%
X177800000Y-111760000D03*
%TD*%
D11*
%TO.C,U2*%
X142875000Y-98425000D03*
D12*
X142875000Y-100965000D03*
X142875000Y-103505000D03*
X142875000Y-106045000D03*
X142875000Y-108585000D03*
X142875000Y-111125000D03*
X142875000Y-113665000D03*
X142875000Y-116205000D03*
X142875000Y-118745000D03*
X142875000Y-121285000D03*
X142875000Y-123825000D03*
X142875000Y-126365000D03*
X142875000Y-128905000D03*
X142875000Y-131445000D03*
X150495000Y-131445000D03*
X150495000Y-128905000D03*
X150495000Y-126365000D03*
X150495000Y-123825000D03*
X150495000Y-121285000D03*
X150495000Y-118745000D03*
X150495000Y-116205000D03*
X150495000Y-113665000D03*
X150495000Y-111125000D03*
X150495000Y-108585000D03*
X150495000Y-106045000D03*
X150495000Y-103505000D03*
X150495000Y-100965000D03*
X150495000Y-98425000D03*
%TD*%
D13*
%TO.C,J1*%
X160180601Y-121475000D03*
X160180601Y-119475001D03*
X160180601Y-117475000D03*
X160180601Y-115475002D03*
%TD*%
D14*
%TO.C,R3*%
X142875000Y-93345000D03*
D15*
X150495000Y-93345000D03*
%TD*%
D14*
%TO.C,R2*%
X139065000Y-127635000D03*
D15*
X131445000Y-127635000D03*
%TD*%
D14*
%TO.C,R1*%
X130175000Y-104775000D03*
D15*
X130175000Y-97155000D03*
%TD*%
D16*
%TO.C,J4*%
X154305000Y-95885000D03*
%TD*%
%TO.C,J3*%
X135255000Y-98425000D03*
D17*
X135255000Y-100965000D03*
X135255000Y-103505000D03*
X135255000Y-106045000D03*
X135255000Y-108585000D03*
X135255000Y-111125000D03*
X135255000Y-113665000D03*
X135255000Y-116205000D03*
%TD*%
D14*
%TO.C,C5*%
X158115000Y-104775000D03*
X163115000Y-104775000D03*
%TD*%
%TO.C,C4*%
X154305000Y-122515000D03*
X154305000Y-117515000D03*
%TD*%
%TO.C,C3*%
X158155000Y-99695000D03*
X163155000Y-99695000D03*
%TD*%
%TO.C,C2*%
X158155000Y-94375000D03*
X163155000Y-94375000D03*
%TD*%
%TO.C,C1*%
X158115000Y-89535000D03*
X163115000Y-89535000D03*
%TD*%
D18*
%TO.C,D2*%
X135255000Y-121285000D03*
D19*
X135255000Y-123825000D03*
%TD*%
D16*
%TO.C,J2*%
X140335000Y-85725000D03*
D17*
X142875000Y-85725000D03*
X145415000Y-85725000D03*
X147955000Y-85725000D03*
X150495000Y-85725000D03*
%TD*%
D18*
%TO.C,D1*%
X137795000Y-90805000D03*
D19*
X135255000Y-90805000D03*
%TD*%
M02*
